<svg xmlns="http://www.w3.org/2000/svg" viewBox="80 340 560 680" role="img" aria-label="Capi, a capivara do CapyFala"><circle cx="452" cy="400" r="30" fill="#A8703F" stroke="#3A2213" stroke-width="9" stroke-linecap="round" stroke-linejoin="round"></circle><path d="M500 735 C525 800 535 900 552 990" fill="none" stroke="#3A2213" stroke-width="9" stroke-linecap="round" stroke-linejoin="round"></path><g transform="translate(330 1000) scale(1 1) translate(-330 -1000)"><path d="M100 1000 C98 800 110 650 152 560 C188 470 252 420 332 410 C422 400 502 420 562 460 C612 492 628 542 622 602 C617 662 590 702 540 716 C528 762 544 882 550 1000 Z" fill="#C98B54" stroke="#3A2213" stroke-width="9" stroke-linecap="round" stroke-linejoin="round"></path><path d="M112 1000 C110 820 118 690 150 600 C160 700 158 850 176 1000 Z" fill="#A8703F" opacity="0.55"></path><path d="M492 505 C542 494 602 510 616 560 C626 622 606 680 560 700 C520 710 490 690 486 640 C481 590 472 520 492 505 Z" fill="#A5714A" opacity="0.85"></path><path d="M512 540 Q526 530 540 540" fill="none" stroke="#3A2213" stroke-width="8" stroke-linecap="round" stroke-linejoin="round"></path><path d="M580 540 Q594 530 606 542" fill="none" stroke="#3A2213" stroke-width="8" stroke-linecap="round" stroke-linejoin="round"></path><path d="M562 568 L562 650 M532 668 Q562 660 590 666" fill="none" stroke="#3A2213" stroke-width="7" stroke-linecap="round" stroke-linejoin="round"></path><path d="M300 675 Q400 760 490 712" fill="none" stroke="#3A2213" stroke-width="9" stroke-linecap="round" stroke-linejoin="round"></path><path d="M168 760 C150 850 172 948 232 958 C272 960 262 900 268 840" fill="none" stroke="#3A2213" stroke-width="9" stroke-linecap="round" stroke-linejoin="round"></path></g><circle cx="222" cy="412" r="42" fill="#C98B54" stroke="#3A2213" stroke-width="9" stroke-linecap="round" stroke-linejoin="round"></circle><circle cx="226" cy="416" r="20" fill="#9C6A45"></circle><path d="M150 560 C188 470 252 420 332 410" fill="none" stroke="#3A2213" stroke-width="9" stroke-linecap="round" stroke-linejoin="round"></path><path d="M330 525 Q360 485 390 525" fill="none" stroke="#3A2213" stroke-width="10" stroke-linecap="round" stroke-linejoin="round"></path></svg>